#!OML:ASF G:\JayActor3\Patient Classification 1\Patient 1\Session 6\male.ASF
:FULLY-SPECIFIED
:DEGREES
2337
root 0.809073 15.8655 -23.1464 549.401 -62.2587 -548.082
lowerback -0.493334 4.69492 1.77295
upperback -4.02997 6.00441 -5.07363
thorax -3.15997 2.80279 -6.36208
lowerneck -1.48088 -4.14254 -7.01688
upperneck -3.234 -5.42745 3.47424
head -0.461877 -2.67516 2.27822
rclavicle -4.03533e-014 -7.95139e-016
rhumerus -43.7599 -25.7143 -75.1382
rradius 61.347
rwrist 6.00603
rhand -59.1953 -17.1676
rfingers 7.12502
rthumb -31.3855 -44.4949
lclavicle -4.03533e-014 -7.95139e-016
lhumerus -85.3448 -23.8438 96.0057
lradius 103.728
lwrist -6.21015
lhand -26.417 -34.5637
lfingers 7.12502
lthumb 0.143018 -4.58402
rfemur -23.9078 -26.6766 12.1973
rtibia 54.7037
rfoot -38.4784 -22.349
rtoes 9.01703
lfemur -12.2642 26.9191 -27.0867
ltibia 33.6888
lfoot -15.2101 -29.5116
ltoes 21.5374
2338
root 0.807953 15.8657 -23.1441 549.501 -62.1576 -548.144
lowerback -0.522277 4.74109 1.7665
upperback -4.0683 6.06284 -5.08944
thorax -3.17559 2.83017 -6.37477
lowerneck -1.4826 -4.15256 -7.05129
upperneck -3.20373 -5.44057 3.45425
head -0.450989 -2.68145 2.2771
rclavicle 5.85421e-014 7.95139e-016
rhumerus -43.8342 -25.6655 -75.0473
rradius 61.3299
rwrist 6.16501
rhand -59.0788 -16.9602
rfingers 7.12502
rthumb -31.2744 -44.309
lclavicle 5.85421e-014 7.95139e-016
lhumerus -85.0951 -23.9485 95.8969
lradius 103.539
lwrist -6.3525
lhand -26.4919 -34.8268
lfingers 7.12502
lthumb 0.0706223 -4.84709
rfemur -24.015 -26.6292 12.1786
rtibia 54.7395
rfoot -38.4471 -22.3307
rtoes 9.01198
lfemur -12.3143 26.939 -27.1728
ltibia 33.667
lfoot -15.2085 -29.46
ltoes 21.5547
2339
root 0.807438 15.8662 -23.1417 549.578 -62.0552 -548.168
lowerback -0.547657 4.78586 1.77386
upperback -4.1171 6.11933 -5.10202
thorax -3.2033 2.85564 -6.39283
lowerneck -1.47793 -4.15748 -7.07614
upperneck -3.17227 -5.44743 3.43054
head -0.441523 -2.68473 2.27327
rclavicle 2.32578e-014 -7.95139e-015
rhumerus -43.9035 -25.577 -74.9788
rradius 61.3012
rwrist 6.33385
rhand -58.9718 -16.7164
rfingers 7.12502
rthumb -31.1724 -44.0849
lclavicle 2.32578e-014 -7.95139e-015
lhumerus -84.8435 -24.0478 95.7783
lradius 103.348
lwrist -6.51722
lhand -26.5261 -35.0694
lfingers 7.12502
lthumb 0.0376593 -5.08962
rfemur -24.1385 -26.5739 12.1907
rtibia 54.7686
rfoot -38.4164 -22.3238
rtoes 9.02325
lfemur -12.3898 26.9661 -27.2458
ltibia 33.6573
lfoot -15.1945 -29.4164
ltoes 21.5902
2340
root 0.807259 15.867 -23.1391 549.645 -61.9502 -548.175
lowerback -0.566004 4.82951 1.78808
upperback -4.17452 6.17395 -5.11469
thorax -3.24346 2.87938 -6.41611
lowerneck -1.46574 -4.15643 -7.09689
upperneck -3.13974 -5.4467 3.41245
head -0.433365 -2.68431 2.27082
rclavicle 2.78299e-015 -2.38542e-014
rhumerus -43.9692 -25.4567 -74.9312
rradius 61.2602
rwrist 6.49488
rhand -58.8863 -16.477
rfingers 7.12502
rthumb -31.0909 -43.8611
lclavicle 2.78299e-015 -2.38542e-014
lhumerus -84.5953 -24.1449 95.6528
lradius 103.153
lwrist -6.7136
lhand -26.5123 -35.2932
lfingers 7.12502
lthumb 0.0509027 -5.31346
rfemur -24.2682 -26.5196 12.2154
rtibia 54.7922
rfoot -38.3805 -22.3163
rtoes 9.03644
lfemur -12.4782 27.0113 -27.3116
ltibia 33.6556
lfoot -15.1657 -29.3931
ltoes 21.6508
2341
root 0.807143 15.8678 -23.1362 549.706 -61.8453 -548.174
lowerback -0.579428 4.87148 1.80966
upperback -4.23649 6.2261 -5.12927
thorax -3.29045 2.90126 -6.44632
lowerneck -1.45621 -4.15234 -7.11197
upperneck -3.09756 -5.44166 3.39604
head -0.422043 -2.68189 2.26773
rclavicle 8.77634e-014 -3.89618e-014
rhumerus -44.0264 -25.3244 -74.8995
rradius 61.2037
rwrist 6.63281
rhand -58.825 -16.2527
rfingers 7.12502
rthumb -31.0326 -43.648
lclavicle 8.77634e-014 -3.89618e-014
lhumerus -84.356 -24.2424 95.5244
lradius 102.957
lwrist -6.93439
lhand -26.4526 -35.5068
lfingers 7.12502
lthumb 0.108621 -5.52709
rfemur -24.3993 -26.4751 12.2437
rtibia 54.8133
rfoot -38.337 -22.3034
rtoes 9.05153
lfemur -12.5725 27.0745 -27.3737
ltibia 33.6574
lfoot -15.1263 -29.3899
ltoes 21.7306
2342
root 0.806781 15.8685 -23.1331 549.777 -61.7376 -548.185
lowerback -0.591029 4.91279 1.83017
upperback -4.30045 6.27689 -5.14828
thorax -3.34032 2.92216 -6.48093
lowerneck -1.45153 -4.14555 -7.12443
upperneck -3.04197 -5.4325 3.38451
head -0.405814 -2.67756 2.26548
rclavicle 1.92821e-014 4.53229e-014
rhumerus -44.076 -25.1996 -74.8771
rradius 61.135
rwrist 6.73232
rhand -58.7886 -16.0638
rfingers 7.12502
rthumb -30.9979 -43.4657
lclavicle 1.92821e-014 4.53229e-014
lhumerus -84.1433 -24.3442 95.4181
lradius 102.766
lwrist -7.11217
lhand -26.3957 -35.6917
lfingers 7.12502
lthumb 0.163595 -5.71202
rfemur -24.5284 -26.4454 12.2604
rtibia 54.835
rfoot -38.2761 -22.2839
rtoes 9.05315
lfemur -12.6639 27.1597 -27.4409
ltibia 33.6577
lfoot -15.0737 -29.41
ltoes 21.8337
2343
root 0.805914 15.8688 -23.1298 549.86 -61.6296 -548.215
lowerback -0.604032 4.95164 1.84858
upperback -4.36229 6.32413 -5.17125
thorax -3.38738 2.94129 -6.51829
lowerneck -1.45358 -4.13473 -7.13885
upperneck -2.97435 -5.41727 3.3796
head -0.384721 -2.67031 2.26546
rclavicle 9.44227e-015 5.56597e-015
rhumerus -44.114 -25.0938 -74.8592
rradius 61.0561
rwrist 6.77584
rhand -58.7692 -15.8831
rfingers 7.12502
rthumb -30.9794 -43.2885
lclavicle 9.44227e-015 5.56597e-015
lhumerus -83.9608 -24.4472 95.3369
lradius 102.586
lwrist -7.22925
lhand -26.3547 -35.871
lfingers 7.12502
lthumb 0.203196 -5.89133
rfemur -24.6507 -26.4369 12.2579
rtibia 54.8602
rfoot -38.1985 -22.2538
rtoes 9.03001
lfemur -12.7464 27.2587 -27.5167
ltibia 33.6548
lfoot -15.0236 -29.4434
ltoes 21.9416
2344
root 0.804506 15.8686 -23.1263 549.952 -61.5206 -548.259
lowerback -0.621537 4.98794 1.86537
upperback -4.42066 6.36791 -5.19638
thorax -3.42859 2.95888 -6.55635
lowerneck -1.46416 -4.11887 -7.15057
upperneck -2.8944 -5.39468 3.37521
head -0.358745 -2.65949 2.26481
rclavicle 4.39314e-014 2.8625e-014
rhumerus -44.1373 -25.0187 -74.8423
rradius 60.9656
rwrist 6.76074
rhand -58.783 -15.7598
rfingers 7.12502
rthumb -30.9925 -43.1627
lclavicle 4.39314e-014 2.8625e-014
lhumerus -83.8149 -24.5508 95.2901
lradius 102.424
lwrist -7.25967
lhand -26.3525 -36.0423
lfingers 7.12502
lthumb 0.205265 -6.06264
rfemur -24.7671 -26.4498 12.2385
rtibia 54.8893
rfoot -38.1003 -22.2154
rtoes 8.97782
lfemur -12.8199 27.365 -27.599
ltibia 33.6492
lfoot -14.9796 -29.4823
ltoes 22.0467
2345
root 0.80249 15.8677 -23.1227 550.047 -61.4142 -548.316
lowerback -0.641392 5.02017 1.87976
upperback -4.47344 6.40635 -5.22279
thorax -3.46338 2.97411 -6.5938
lowerneck -1.48288 -4.09625 -7.15986
upperneck -2.80346 -5.36248 3.37075
head -0.328512 -2.64397 2.26346
rclavicle -1.60022e-014 3.18055e-014
rhumerus -44.1455 -24.9764 -74.8248
rradius 60.8583
rwrist 6.69965
rhand -58.7765 -15.6013
rfingers 7.12502
rthumb -30.9863 -43.0054
lclavicle -1.60022e-014 3.18055e-014
lhumerus -83.7098 -24.6568 95.2781
lradius 102.283
lwrist -7.20743
lhand -26.408 -36.2184
lfingers 7.12502
lthumb 0.151706 -6.23869
rfemur -24.8691 -26.4852 12.2
rtibia 54.9227
rfoot -37.9843 -22.1679
rtoes 8.89292
lfemur -12.8774 27.4759 -27.6834
ltibia 33.6428
lfoot -14.9464 -29.5259
ltoes 22.1445
2346
root 0.800283 15.8665 -23.1192 550.128 -61.3145 -548.367
lowerback -0.659757 5.04799 1.89835
upperback -4.5212 6.43939 -5.24751
thorax -3.49414 2.98681 -6.63163
lowerneck -1.51076 -4.06827 -7.16288
upperneck -2.70472 -5.32261 3.3627
head -0.294958 -2.6247 2.2596
rclavicle -8.01102e-014 1.11319e-014
rhumerus -44.1378 -24.9627 -74.8069
rradius 60.7285
rwrist 6.61418
rhand -58.7661 -15.3738
rfingers 7.12502
rthumb -30.9764 -42.7798
lclavicle -8.01102e-014 1.11319e-014
lhumerus -83.6419 -24.7722 95.2964
lradius 102.165
lwrist -7.09478
lhand -26.5206 -36.4144
lfingers 7.12502
lthumb 0.0429476 -6.43465
rfemur -24.957 -26.5334 12.1571
rtibia 54.9581
rfoot -37.8674 -22.105
rtoes 8.81148
lfemur -12.9233 27.5772 -27.7592
ltibia 33.6377
lfoot -14.927 -29.5627
ltoes 22.2246
2347
root 0.797896 15.8648 -23.1159 550.198 -61.2218 -548.42
lowerback -0.675425 5.07063 1.91412
upperback -4.56102 6.46598 -5.27053
thorax -3.5194 2.9968 -6.66583
lowerneck -1.54204 -4.0369 -7.15639
upperneck -2.60722 -5.27823 3.34867
head -0.261893 -2.60322 2.2521
rclavicle 6.24184e-014 -2.78299e-014
rhumerus -44.1068 -24.9706 -74.7916
rradius 60.5641
rwrist 6.54181
rhand -58.7629 -15.0831
rfingers 7.12502
rthumb -30.9733 -42.4897
lclavicle 6.24184e-014 -2.78299e-014
lhumerus -83.6034 -24.8965 95.3335
lradius 102.072
lwrist -6.96311
lhand -26.6748 -36.6193
lfingers 7.12502
lthumb -0.106044 -6.63954
rfemur -25.025 -26.5924 12.1044
rtibia 54.9947
rfoot -37.7519 -22.0286
rtoes 8.73559
lfemur -12.9524 27.6757 -27.8264
ltibia 33.6354
lfoot -14.9129 -29.6016
ltoes 22.302
2348
root 0.795533 15.8626 -23.1128 550.254 -61.1381 -548.473
lowerback -0.681486 5.08799 1.92603
upperback -4.59371 6.48591 -5.29212
thorax -3.54399 3.00387 -6.6969
lowerneck -1.56965 -4.00525 -7.14632
upperneck -2.51767 -5.23381 3.33608
head -0.232022 -2.58172 2.24469
rclavicle 4.24405e-014 4.45278e-014
rhumerus -44.0506 -24.9902 -74.783
rradius 60.3604
rwrist 6.51491
rhand -58.8083 -14.8211
rfingers 7.12502
rthumb -31.0166 -42.2194
lclavicle 4.24405e-014 4.45278e-014
lhumerus -83.5856 -25.0327 95.3767
lradius 102
lwrist -6.85643
lhand -26.8402 -36.8291
lfingers 7.12502
lthumb -0.265721 -6.84948
rfemur -25.0691 -26.6618 12.0423
rtibia 55.0296
rfoot -37.635 -21.9482
rtoes 8.65101
lfemur -12.9626 27.7734 -27.8827
ltibia 33.6365
lfoot -14.9007 -29.6479
ltoes 22.3772
2349
root 0.793457 15.8605 -23.1099 550.288 -61.0614 -548.513
lowerback -0.679909 5.10168 1.94037
upperback -4.61935 6.50169 -5.31058
thorax -3.56613 3.00919 -6.72634
lowerneck -1.59508 -3.97625 -7.1333
upperneck -2.43963 -5.19317 3.32628
head -0.20594 -2.56204 2.2379
rclavicle 3.49861e-014 2.62396e-014
rhumerus -43.9629 -25.0061 -74.7892
rradius 60.1218
rwrist 6.54763
rhand -58.8957 -14.6192
rfingers 7.12502
rthumb -31.0999 -42.0016
lclavicle 3.49861e-014 2.62396e-014
lhumerus -83.5754 -25.1824 95.4137
lradius 101.946
lwrist -6.80554
lhand -26.9912 -37.0581
lfingers 7.12502
lthumb -0.411616 -7.07875
rfemur -25.0967 -26.7323 11.9841
rtibia 55.061
rfoot -37.5282 -21.8609
rtoes 8.58247
lfemur -12.9615 27.8661 -27.9229
ltibia 33.6404
lfoot -14.8856 -29.6964
ltoes 22.4626
2350
root 0.791792 15.8585 -23.1072 550.301 -60.9879 -548.536
lowerback -0.674187 5.11409 1.95706
upperback -4.639 6.51639 -5.32678
thorax -3.58447 3.01431 -6.75471
lowerneck -1.61318 -3.95188 -7.1174
upperneck -2.37819 -5.15929 3.32036
head -0.185934 -2.54566 2.23222
rclavicle 1.50082e-014 -3.18055e-014
rhumerus -43.8415 -25.0104 -74.8146
rradius 59.8532
rwrist 6.64069
rhand -59.0397 -14.5448
rfingers 7.12502
rthumb -31.2372 -41.9008
lclavicle 1.50082e-014 -3.18055e-014
lhumerus -83.5774 -25.3501 95.4579
lradius 101.908
lwrist -6.76606
lhand -27.1469 -37.2725
lfingers 7.12502
lthumb -0.561948 -7.29354
rfemur -25.1158 -26.8009 11.9345
rtibia 55.0873
rfoot -37.4199 -21.7853
rtoes 8.51379
lfemur -12.955 27.9586 -27.9494
ltibia 33.6464
lfoot -14.8643 -29.7479
ltoes 22.5553
